# xmcd
#
# Track frame offsets:
#	150
#	15594
#	26953
#	44809
#	63056
#	80189
#	95317
#	114430
#	129535
#	148650
#	165951
#	178088
#	192056
#	207055
#	221706
#	232421
#	250655
#	266790
#	283584
#	301426
#	315561
#	332566
#
# Disc length: 4664 seconds
#
# Revision: 0
# Processed by: cddbd v1.5.2PL0 Copyright (c) Steve Scherf et al.
# Submitted via: EasyCDDAExtractor 2010.6.0.0
#
DISCID=44123616
DTITLE=Various Artist - Country Hits, Vol. 38
DYEAR=2010
DGENRE=Country
TTITLE0=Rodney Crowell - If Looks Could Kill
TTITLE1=Tim McGraw - It Doesn't Get Any Countrier Than This
TTITLE2=Rodney Crowell - What Kind Of Love
TTITLE3=Darryl Worley - I Will Hold My Ground
TTITLE4=Rodney Crowell - Lovin All Night
TTITLE5=Gary Allan - She's So California
TTITLE6=Rodney Crowell - Now That We're Alone
TTITLE7=Toby Keith - Beer For My Horses
TTITLE8=Rodney Crowell - Now That We Re Alone
TTITLE9=Tim Mcgraw - Seorita Margarita
TTITLE10=Rodney Crowell - The Best Years Of Our Lives
TTITLE11=Blake Shelton - Georgia in a Jug
TTITLE12=Rodney Crowell - It S Such A Small World (W. Rosanne Cash)
TTITLE13=Blake Shelton - I Have Been Lonely
TTITLE14=Gary Allan - Wine Me Up
TTITLE15=Rodney Crowell - Just Say Yes
TTITLE16=Toby Keith - I Know She Hung the Moon
TTITLE17=Gary Allan - No Damn Good
TTITLE18=Rodney Crowell - Soul Searchin'
TTITLE19=Darryl Worley - A Good Day To Run
TTITLE20=Darryl Worley - The Way Things Are Goin
TTITLE21=Rodney Crowell - I Don't Fall In Love So Easy
EXTD=
EXTT0=
EXTT1=
EXTT2=
EXTT3=
EXTT4=
EXTT5=
EXTT6=
EXTT7=
EXTT8=
EXTT9=
EXTT10=
EXTT11=
EXTT12=
EXTT13=
EXTT14=
EXTT15=
EXTT16=
EXTT17=
EXTT18=
EXTT19=
EXTT20=
EXTT21=
PLAYORDER=
